<svg width="32" height="32" viewBox="0 0 32 32" fill="none" xmlns="http://www.w3.org/2000/svg">
<path d="M22.8543 19.4972C21.328 18.0418 18.8517 18.0418 17.3254 19.4972C17.1778 19.6388 17.0413 19.7916 16.917 19.9541C16.0356 19.308 15.1529 18.5523 14.3001 17.6995C13.4809 16.8803 12.7514 16.0312 12.1214 15.1847C12.4339 15.0166 12.7277 14.8062 12.9941 14.5522C14.5616 13.0533 14.5616 10.6231 12.9941 9.1242C11.4267 7.62527 8.88449 7.62527 7.31707 9.1242C6.77551 9.6421 6.4207 10.272 6.25387 10.9356C5.28279 13.1367 7.15647 17.4231 10.8665 21.1331C14.5939 24.8605 18.904 26.7354 21.0964 25.7319C21.7401 25.5688 22.3489 25.2476 22.8543 24.7658C24.3819 23.313 24.3819 20.9525 22.8543 19.4972Z" stroke="white" stroke-width="1.6"/>
<path d="M18 7L21 10L18 13" stroke="#10965F" stroke-width="1.6"/>
<path d="M22 7L25 10L22 13" stroke="#10965F" stroke-width="1.6"/>
</svg>
