<svg width="147" height="32" viewBox="0 0 147 32" fill="none" xmlns="http://www.w3.org/2000/svg">
<path d="M22.2941 14.5649C22.4218 14.6077 22.8866 14.8544 23.0437 14.9328C23.5804 15.2021 24.1189 15.4682 24.6588 15.7304L31.9746 19.3167L31.9778 22.1933C31.9781 22.8357 31.9969 23.6259 31.9412 24.257C31.7841 26.2133 30.9412 28.052 29.5606 29.4485C28.4428 30.5774 26.9788 31.4006 25.4222 31.7393C24.1469 32.0168 22.7528 31.9423 21.4403 31.942L17.1299 31.9399L0.00919938 31.9438L0.00873821 22.6929C0.007674 21.6242 -0.018436 20.4269 0.0250547 19.3688C0.680502 19.6402 1.61634 20.1346 2.28736 20.4623L7.00795 22.7847L21.6595 29.9768C21.6826 29.2306 21.6638 28.3915 21.6638 27.6395L21.6666 23.2694C18.8688 21.8308 15.9355 20.5059 13.1318 19.0683C14.127 18.5241 15.5116 17.8827 16.5595 17.3703L22.2941 14.5649Z" fill="#10965F"/>
<path d="M8.32155 0.0148069C10.9309 -0.0175801 13.6128 0.0132481 16.227 0.0133189L31.9784 0.0136368L31.9748 12.5989C31.3707 12.3364 30.6357 11.9522 30.0319 11.657L25.7428 9.54508L10.3647 2.0009C10.2877 2.11195 10.3219 8.08179 10.3224 8.68527C13.0931 10.1332 16.0812 11.4409 18.8503 12.8869C18.1692 13.2873 16.7442 13.9341 15.9889 14.304C13.8909 15.3317 11.7746 16.395 9.66558 17.3939C9.37657 17.2118 8.85919 16.9751 8.54025 16.8192L6.47025 15.8125L0.00683008 12.6354L0.00803606 9.72506C0.0077168 9.09362 -0.0107989 8.30201 0.042057 7.68308C0.201334 5.8018 0.990907 4.02913 2.28321 2.65141C3.90621 0.934967 5.98192 0.0786596 8.32155 0.0148069Z" fill="#10965F"/>
<path d="M87.166 4.54499C88.1504 4.54505 90.1638 4.48298 91.0701 4.57717C91.3688 4.86216 93.1234 7.38959 93.4944 7.9162L99.3791 16.1125L101.336 18.8446C101.582 19.1935 101.899 19.8249 102.234 20.0356C102.348 19.7754 102.333 6.1757 102.278 4.56292C103.329 4.49426 105.314 4.54221 106.423 4.53631C106.483 4.83199 106.446 5.8199 106.444 6.17799L106.433 9.65241L106.421 23.1554C106.423 23.6846 106.492 27.241 106.347 27.4693C105.125 27.3874 103.888 27.4823 102.765 27.3972C102.141 26.9994 100.909 25.0199 100.401 24.3139L94.793 16.4967C93.8392 15.1516 92.3089 12.847 91.2686 11.6708C91.3777 12.33 91.3395 13.6866 91.338 14.41L91.3302 19.0219L91.3378 24.2812C91.3387 24.9789 91.3858 26.8125 91.2491 27.3684C91.048 27.4863 87.645 27.417 87.1456 27.4104C87.0864 26.0506 87.1147 24.5484 87.1162 23.1787L87.1215 16.4777L87.1295 9.55019C87.1285 7.89933 87.1001 6.1865 87.166 4.54499Z" fill="black"/>
<path d="M44.4267 4.55223C45.6604 4.4877 47.2586 4.55156 48.5437 4.53047C48.6422 7.52899 48.5577 11.0331 48.5602 14.0673L54.8846 14.068C56.3524 14.0665 57.9506 14.092 59.4107 14.0398C59.4263 11.9608 59.4291 9.88161 59.4192 7.80246C59.4188 6.76555 59.395 5.57883 59.4586 4.55356C59.994 4.52676 63.1999 4.49382 63.5617 4.61247C63.7169 5.40319 63.6453 27.2001 63.6124 27.2794C63.5658 27.392 63.4928 27.4008 63.3879 27.4446C62.0622 27.3967 60.744 27.4472 59.4364 27.397C59.3557 24.2759 59.4651 21.0727 59.4071 17.934C55.8466 17.8614 52.1379 17.9212 48.5526 17.9082L48.5596 24.3297C48.5602 25.3009 48.5849 26.2889 48.527 27.2557C48.5404 27.3819 48.2658 27.4287 48.1596 27.4227C47.0315 27.3594 45.9008 27.4596 44.7738 27.4104C44.616 27.4035 44.4978 27.379 44.4124 27.2543C44.3277 26.615 44.3792 25.0868 44.3803 24.3546L44.3827 18.7128L44.3814 9.00009C44.379 8.3554 44.3393 4.93659 44.4267 4.55223Z" fill="black"/>
<path d="M117.385 4.2759C119.292 3.98961 121.901 4.60573 123.579 5.46665C124.083 5.72497 126.037 6.86899 126.037 7.27846C126.036 7.85634 124.501 9.77082 124.149 10.3942C122.087 9.04462 120.732 7.95321 118.053 7.91619C116.923 7.94102 115.856 8.21538 115.054 9.04913C114.172 9.79498 114.023 11.8646 115.105 12.5365C118.2 14.4598 122.466 13.9421 125.187 16.7352C127.424 19.0331 127.219 23.2199 124.933 25.4489C122.855 27.475 120.727 27.7606 117.959 27.777C115.352 27.6387 113.424 27.0981 111.205 25.6134C110.91 25.4155 109.602 24.464 109.591 24.1313C109.577 23.7193 110.932 22.2232 111.206 21.8147C111.283 21.6999 111.726 21.2364 111.828 21.2918C112.374 21.5987 112.729 22.0567 113.255 22.4097C115.601 23.9838 119.762 25.1103 121.977 22.758C122.427 22.2805 122.695 21.6236 122.634 20.9575C122.571 20.2365 122.199 19.5778 121.615 19.1509C121.122 18.7883 120.421 18.5408 119.841 18.339C117.382 17.4832 114.213 17.164 112.16 15.4803C110.979 14.511 110.409 13.1869 110.301 11.6869C110.161 9.76085 110.478 8.27277 111.745 6.75965C112.687 5.63561 114.396 4.78288 115.809 4.4606C116.218 4.36711 116.947 4.31454 117.385 4.2759Z" fill="black"/>
<path d="M127.731 4.53175C128.61 4.53993 129.49 4.5401 130.369 4.53226C130.762 4.53045 131.634 4.49601 131.983 4.58063C132.429 4.97785 136.862 13.5751 137.349 14.6419C137.779 14.0272 137.995 13.467 138.335 12.8164L139.856 9.96034L141.734 6.4514C142.076 5.82035 142.461 5.1952 142.763 4.54694C143.183 4.50801 146.724 4.50123 146.983 4.58491C147.142 5.02083 146.148 6.56035 145.908 7.00133L143.733 11.0131C143.368 11.6849 142.958 12.3284 142.638 13.0229C141.716 14.8336 140.477 16.8111 139.577 18.6582C139.396 19.0299 139.451 20.6113 139.453 21.1234L139.457 24.6796C139.462 25.1878 139.583 27.1677 139.308 27.3964C138.968 27.4622 135.569 27.4342 135.352 27.3486C135.039 27.0286 135.427 19.7454 135.199 18.9066C134.974 18.0739 134.242 16.9739 133.836 16.2141L130.198 9.39932C129.532 8.17335 128.101 5.7684 127.731 4.53175Z" fill="black"/>
<path d="M67.9488 4.55116C68.8556 4.50639 70.068 4.57087 71.0242 4.56959L77.0639 4.54109C78.3008 4.54754 79.5378 4.54777 80.7747 4.5417C81.5515 4.53886 82.4663 4.50713 83.2264 4.5731C83.3864 4.93536 83.4089 8.22606 83.1873 8.53861C78.0378 8.49485 72.8881 8.49095 67.7386 8.52686C67.6761 7.47832 67.6861 5.83247 67.7431 4.74975C67.7491 4.6354 67.8613 4.59654 67.9488 4.55116Z" fill="black"/>
<path d="M79.4288 23.4876C80.0646 23.4954 82.8561 23.4119 83.2392 23.6024C83.4004 24.064 83.3573 26.8701 83.2114 27.3808C83.0929 27.4515 72.942 27.369 71.8547 27.3833L67.7283 27.4125C67.6672 26.2859 67.6858 24.6501 67.7417 23.5326C71.574 23.387 75.6157 23.6134 79.4288 23.4876Z" fill="black"/>
<path d="M68.3217 14.1348C69.4165 14.0839 81.4336 14.066 81.6828 14.1568C81.7233 14.1715 81.7513 14.1989 81.7697 14.2362C81.9345 14.5693 81.9049 17.4612 81.7709 17.8497C81.636 17.994 81.6727 17.9524 81.4368 17.973C78.7312 17.9423 76.0254 17.9323 73.3195 17.9431C71.5441 17.943 69.5015 17.9034 67.736 17.9796C67.7115 17.4627 67.649 14.5594 67.7672 14.2283C67.9124 14.1193 68.133 14.1393 68.3217 14.1348Z" fill="black"/>
</svg>
