<svg width="64" height="64" viewBox="0 0 64 64" fill="none" xmlns="http://www.w3.org/2000/svg">
<path d="M49.1311 24.0179H40.1658C39.7699 24.0179 39.3903 24.175 39.1102 24.4547C38.8301 24.7344 38.6724 25.1138 38.6719 25.5096V33.5336H24.3281V25.5096C24.3276 25.1138 24.1699 24.7344 23.8898 24.4547C23.6097 24.175 23.2301 24.0179 22.8343 24.0179H13.8689C13.4734 24.0179 13.0941 24.1747 12.814 24.4539C12.534 24.7332 12.3761 25.112 12.375 25.5075V44.913C12.375 45.7375 13.0444 46.4069 13.8689 46.4069H19.0603V49.5349C19.0603 50.1362 19.549 50.6229 20.1504 50.6229C20.5054 50.6229 20.8459 50.4818 21.097 50.2308C21.3481 49.9797 21.4891 49.6392 21.4891 49.2841V46.4047H41.6596V49.5349C41.6596 50.1362 42.1484 50.6229 42.7497 50.6229C43.1048 50.6229 43.4453 50.4818 43.6964 50.2308C43.9475 49.9797 44.0885 49.6392 44.0885 49.2841V46.4047H49.1311C49.527 46.4047 49.9066 46.2477 50.1867 45.968C50.4668 45.6883 50.6244 45.3088 50.625 44.913V25.5075C50.6244 25.1117 50.4668 24.7322 50.1867 24.4525C49.9066 24.1728 49.527 24.0157 49.1311 24.0157V24.0179ZM18.053 22.711H44.947C45.3428 22.711 45.7225 22.5539 46.0026 22.2742C46.2827 21.9945 46.4403 21.6151 46.4409 21.2193V13.8667C46.4403 13.4709 46.2827 13.0915 46.0026 12.8118C45.7225 12.5321 45.3428 12.375 44.947 12.375H18.053C17.6572 12.375 17.2775 12.5321 16.9974 12.8118C16.7173 13.0915 16.5597 13.4709 16.5591 13.8667V21.2193C16.5591 22.0438 17.2285 22.711 18.053 22.711ZM26.9419 24.0179C26.546 24.0179 26.1664 24.175 25.8863 24.4547C25.6062 24.7344 25.4486 25.1138 25.448 25.5096V30.922C25.448 31.7465 26.1174 32.4138 26.9419 32.4138H36.0581C36.454 32.4138 36.8336 32.2567 37.1137 31.977C37.3938 31.6973 37.5514 31.3178 37.552 30.922V25.5075C37.5517 25.3113 37.5128 25.1171 37.4375 24.936C37.3621 24.7548 37.2519 24.5903 37.113 24.4518C36.974 24.3133 36.8092 24.2035 36.6278 24.1287C36.4465 24.0538 36.2522 24.0155 36.056 24.0157H26.944L26.9419 24.0179Z" fill="black"/>
</svg>
