<svg width="64" height="64" viewBox="0 0 64 64" fill="none" xmlns="http://www.w3.org/2000/svg">
<path d="M17.6281 32.5891C16.1844 30.9594 15.2492 28.4984 15.2492 25.7203C15.2492 20.9078 18.0219 18.2937 21.4726 18.1953C20.9914 19.6828 20.7125 21.3289 20.7125 23.1117C20.7125 25.9172 21.3195 28.6078 22.4297 30.9156C21.5 31.1289 20.5812 31.3805 19.6734 31.6539C19.4492 31.725 19.225 31.7961 19.0227 31.8727C18.5305 32.0586 18.0766 32.3156 17.6281 32.5891ZM51.1625 33.825C51.0422 33.7812 50.9219 33.7375 50.8016 33.6992C49.4508 33.2891 48.0891 32.9992 46.7164 32.7859C50.2547 35.1812 52.1687 40.207 51.157 45.118C50.9646 46.0541 50.6995 46.9738 50.3641 47.8687C52.382 46.5398 53.9516 44.2812 54.5367 41.4266C55.1984 38.2109 53.7601 34.8148 51.1625 33.825ZM43.2875 23.1117C43.2875 25.9172 42.6805 28.6078 41.5703 30.9156C42.5 31.1289 43.4133 31.375 44.3156 31.6484C44.5508 31.7195 44.7695 31.7961 44.9883 31.8836C45.475 32.0695 45.9234 32.3211 46.3664 32.5891C47.8101 30.9594 48.7453 28.4984 48.7453 25.7203C48.7453 20.9078 45.9726 18.2937 42.5219 18.1953C43.0141 19.6883 43.2875 21.3289 43.2875 23.1117ZM12.8484 45.1234C11.8367 40.207 13.7453 35.1922 17.2945 32.7914C15.9219 32.9992 14.5547 33.2945 13.2039 33.7047C13.0836 33.743 12.9633 33.7812 12.843 33.8305C10.2453 34.8203 8.80702 38.2164 9.46874 41.4375C10.0594 44.2922 11.6234 46.5508 13.6414 47.8797C13.3133 46.9992 13.0453 46.0805 12.8484 45.1234ZM44.0859 34.2078C43.9219 34.1477 43.7578 34.0875 43.5937 34.0383C41.5539 33.4203 39.4867 32.9719 37.4086 32.682C39.4648 30.4562 40.7937 27 40.7937 23.1062C40.7937 16.3906 36.8562 12.7812 32.0055 12.7812C27.1547 12.7812 23.2172 16.3906 23.2172 23.1062C23.2172 27 24.5461 30.4562 26.6023 32.682C24.5242 32.9719 22.457 33.4148 20.4172 34.0383C20.2477 34.0875 20.0836 34.1477 19.925 34.2078C16.3703 35.5641 14.3961 40.2125 15.3039 44.6203C16.5781 50.8492 21.1719 55.2133 26.4383 55.2133H37.5617C42.8281 55.2133 47.4219 50.8492 48.707 44.6203C49.6148 40.2125 47.6406 35.5641 44.0859 34.2078Z" fill="black"/>
</svg>
