<svg width="64" height="64" viewBox="0 0 64 64" fill="none" xmlns="http://www.w3.org/2000/svg">
<path d="M29.1159 11.0093C29.7937 11.0093 30.3068 11.5242 30.3857 12.1985V29.0814C30.552 33.691 27.0143 37.4529 22.4994 37.7961V44.4004C23.8419 44.6811 25.0501 45.4077 25.9274 46.4621C26.8047 47.5165 27.2995 48.8366 27.3313 50.2079L36.0723 50.2114C34.3549 49.1043 32.9425 47.5844 31.9641 45.7907C30.9857 43.9969 30.4725 41.9865 30.4715 39.9433V39.0098C30.4715 38.332 31.0669 37.7366 31.7447 37.7366H53.7188C54.3966 37.7366 54.992 38.332 54.992 39.0063V39.9433C54.992 44.2253 52.7398 48.0292 49.3352 50.2114H55.0743C55.7574 50.2114 56.2653 50.7193 56.2653 51.3971V51.5634C56.2653 52.1589 55.7574 52.7544 55.0743 52.7544H9.93871C9.63179 52.7614 9.3346 52.6464 9.11233 52.4347C8.89006 52.2229 8.76085 51.9316 8.75305 51.6247V51.3971C8.75305 50.7193 9.26444 50.2061 9.94397 50.2061H15.1227L15.142 49.8191C15.255 48.5194 15.7836 47.2906 16.6494 46.3146C17.5153 45.3387 18.6724 44.6675 19.9494 44.4004V37.7979C17.7394 37.6503 15.6682 36.6677 14.1559 35.0494C12.6436 33.431 11.8034 31.2981 11.8056 29.0832V12.1985C11.8932 11.5242 12.4011 11.0076 13.0806 11.0076H29.1159V11.0093ZM21.2226 46.8155C20.3091 46.8214 19.4323 47.1757 18.7712 47.8062C18.1102 48.4366 17.7147 49.2957 17.6656 50.2079H24.7726L24.7603 49.9329C24.6463 49.0744 24.2258 48.2861 23.5763 47.7132C22.9268 47.1403 22.0921 46.8215 21.2261 46.8155H21.2226Z" fill="black"/>
</svg>
