<svg width="20" height="20" viewBox="0 0 20 20" fill="none" xmlns="http://www.w3.org/2000/svg">
<path d="M14.8364 5.33447C12.9403 9.17211 7.93185 17.1732 3.06726 18.4767" stroke="#0F6E47"/>
<path d="M5.22498 7.09985C6.00959 8.27677 7.46112 11.7291 6.99035 16.1229" stroke="#0F6E47"/>
<path d="M5.22496 13.769C3.59035 12.4613 1.26267 8.5906 5.02881 3.56909C5.81342 4.09217 7.53957 5.49139 8.16725 6.90369" stroke="#0F6E47"/>
<path d="M9.14806 11.6115C8.36344 9.32304 8.71652 4.19691 16.4057 2C17.4519 5.59613 17.8572 12.9453 11.1096 13.573" stroke="#0F6E47"/>
<path d="M13.2672 8.08081C13.4634 8.08081 13.4634 8.23773 15.0326 8.08081" stroke="#0F6E47"/>
<path d="M11.698 10.6306C11.7634 10.7614 12.208 10.9445 13.4634 10.6306" stroke="#0F6E47"/>
</svg>
