<svg width="34" height="34" viewBox="0 0 34 34" fill="none" xmlns="http://www.w3.org/2000/svg">
<rect width="33.5467" height="33.5467" rx="8" fill="#4EC034"/>
<path d="M20.124 13.3097C20.3559 13.3097 20.5853 13.3266 20.8128 13.3519C20.1939 10.4815 17.1128 8.34891 13.596 8.34891C9.66413 8.34891 6.44336 11.0182 6.44336 14.4077C6.44336 16.3642 7.51489 17.9709 9.30549 19.217L8.5901 21.3601L11.0905 20.1112C11.9852 20.2876 12.7031 20.469 13.5959 20.469C13.8204 20.469 14.0429 20.4579 14.2637 20.4407C14.1239 19.9644 14.0429 19.4655 14.0429 18.9479C14.043 15.8355 16.7264 13.3097 20.124 13.3097ZM16.2782 11.3781C16.8167 11.3781 17.1735 11.731 17.1735 12.2671C17.1735 12.8011 16.8167 13.1589 16.2782 13.1589C15.7421 13.1589 15.2042 12.8011 15.2042 12.2671C15.2042 11.731 15.7421 11.3781 16.2782 11.3781ZM11.2723 13.1588C10.7363 13.1588 10.1953 12.801 10.1953 12.2671C10.1953 11.731 10.7363 11.3781 11.2723 11.3781C11.8084 11.3781 12.1652 11.731 12.1652 12.2671C12.1652 12.801 11.8084 13.1588 11.2723 13.1588ZM26.6521 18.8623C26.6521 16.0141 23.7905 13.6924 20.5766 13.6924C17.1735 13.6924 14.4931 16.0141 14.4931 18.8623C14.4931 21.7154 17.1735 24.0321 20.5766 24.0321C21.2889 24.0321 22.0074 23.8532 22.7228 23.6747L24.6846 24.7447L24.1467 22.9644C25.5824 21.8915 26.6521 20.469 26.6521 18.8623ZM18.6042 17.9709C18.2481 17.9709 17.8888 17.618 17.8888 17.258C17.8888 16.9031 18.2481 16.5456 18.6042 16.5456C19.1452 16.5456 19.4995 16.9031 19.4995 17.258C19.4995 17.618 19.1452 17.9709 18.6042 17.9709ZM22.5385 17.9709C22.1848 17.9709 21.828 17.618 21.828 17.258C21.828 16.9031 22.1848 16.5456 22.5385 16.5456C23.0746 16.5456 23.4338 16.9031 23.4338 17.258C23.4338 17.618 23.0746 17.9709 22.5385 17.9709Z" fill="white"/>
</svg>
