<svg width="34" height="34" viewBox="0 0 34 34" fill="none" xmlns="http://www.w3.org/2000/svg">
<path d="M8.0512 1.52588e-05H25.4955C30.8629 1.52588e-05 33.5467 2.68375 33.5467 8.05121V25.4955C33.5467 30.8629 30.8629 33.5467 25.4955 33.5467H8.0512C2.68373 33.5467 0 30.8629 0 25.4955V8.05121C0 2.68375 2.68373 1.52588e-05 8.0512 1.52588e-05Z" fill="#25D366"/>
<path d="M11.586 25.2927L7.14454 26.403L8.16514 21.8113C7.26913 20.2838 6.79806 18.5444 6.80079 16.7735C6.80079 11.2655 11.2662 6.80013 16.7741 6.80013C22.2821 6.80013 26.7474 11.2655 26.7474 16.7735C26.7474 22.2814 22.2821 26.7468 16.7741 26.7468C14.8739 26.7468 13.0973 26.2149 11.586 25.2927ZM18.8725 17.6591C18.7794 17.6591 18.5933 17.832 18.314 18.1797C18.0348 18.5261 17.8419 18.6996 17.7349 18.6996C17.651 18.6959 17.5695 18.6699 17.4988 18.6245C16.8187 18.2814 16.2788 17.9197 15.8779 17.5407C15.3912 17.0826 15.0268 16.5926 14.7834 16.0707C14.7506 16.023 14.732 15.967 14.7296 15.9091C14.7296 15.838 14.8533 15.6717 15.0999 15.4104C15.3466 15.1491 15.4703 14.9437 15.4703 14.7934C15.4703 14.7429 15.3805 14.4743 15.2017 13.9882C15.0871 13.6723 14.9692 13.3575 14.8479 13.0441C14.7901 12.8932 14.7349 12.7948 14.6817 12.7482C14.6279 12.7017 14.5328 12.6791 14.3971 12.6791C14.3466 12.6791 14.2788 12.6731 14.193 12.6625C14.1291 12.6535 14.0647 12.6482 14.0002 12.6465C13.7994 12.6465 13.6132 12.7249 13.4417 12.8825C12.9337 13.3619 12.6691 13.9271 12.6472 14.578V14.6644C12.6405 15.2868 12.8945 15.9809 13.4091 16.7469C13.953 17.5481 14.4829 18.2096 14.9982 18.7322C15.5241 19.2621 16.1424 19.6913 16.8227 19.9988C17.7741 20.4423 18.4536 20.6637 18.8619 20.6637C19.1983 20.6637 19.5627 20.5693 19.9563 20.3798C20.3499 20.1903 20.6039 19.9556 20.7182 19.6764C20.8399 19.3692 20.9011 19.0972 20.9011 18.8612C20.9037 18.8065 20.8965 18.7518 20.8798 18.6996C20.8439 18.6358 20.5234 18.4457 19.919 18.1312C19.314 17.816 18.9656 17.6591 18.8725 17.6591Z" fill="white"/>
</svg>
