<svg width="34" height="34" viewBox="0 0 34 34" fill="none" xmlns="http://www.w3.org/2000/svg">
<rect width="33.5467" height="33.5467" rx="8" fill="#7D7D7D"/>
<path d="M16.9805 16.9736C16.8455 17.0774 16.6574 17.0772 16.5227 16.973L9.08183 11.2193C8.79906 11.0006 8.95368 10.5479 9.31114 10.5479H24.2313C24.5893 10.5479 24.7436 11.0016 24.4599 11.2198L16.9805 16.9736Z" fill="#C70000"/>
<path d="M16.9805 16.9736C16.8455 17.0774 16.6574 17.0772 16.5227 16.973L9.08183 11.2193C8.79906 11.0006 8.95368 10.5479 9.31114 10.5479H24.2313C24.5893 10.5479 24.7436 11.0016 24.4599 11.2198L16.9805 16.9736Z" fill="white"/>
<path d="M13.4119 16.2861C13.6031 16.4333 13.6073 16.7202 13.4206 16.8731L7.49708 21.7222C7.25234 21.9226 6.88477 21.7485 6.88477 21.4322V12.0191C6.88477 11.708 7.24194 11.5323 7.48842 11.7222L13.4119 16.2861Z" fill="#C70000"/>
<path d="M13.4119 16.2861C13.6031 16.4333 13.6073 16.7202 13.4206 16.8731L7.49708 21.7222C7.25234 21.9226 6.88477 21.7485 6.88477 21.4322V12.0191C6.88477 11.708 7.24194 11.5323 7.48842 11.7222L13.4119 16.2861Z" fill="white"/>
<path d="M14.6836 17.6482C14.8186 17.5381 15.0117 17.5355 15.1497 17.6421L16.5206 18.7009C16.6557 18.8053 16.8442 18.8052 16.9792 18.7007L18.4582 17.556C18.5974 17.4483 18.7927 17.4518 18.9278 17.5645L24.6481 22.3361C24.9173 22.5606 24.7585 22.9988 24.408 22.9988H9.17639C8.82382 22.9988 8.66624 22.5563 8.93945 22.3334L14.6836 17.6482Z" fill="#C70000"/>
<path d="M14.6836 17.6482C14.8186 17.5381 15.0117 17.5355 15.1497 17.6421L16.5206 18.7009C16.6557 18.8053 16.8442 18.8052 16.9792 18.7007L18.4582 17.556C18.5974 17.4483 18.7927 17.4518 18.9278 17.5645L24.6481 22.3361C24.9173 22.5606 24.7585 22.9988 24.408 22.9988H9.17639C8.82382 22.9988 8.66624 22.5563 8.93945 22.3334L14.6836 17.6482Z" fill="white"/>
<path d="M20.1838 16.8068C19.9994 16.6532 20.0048 16.3685 20.1947 16.222L26.0554 11.7006C26.3018 11.5105 26.6592 11.6862 26.6592 11.9974V21.4011C26.6592 21.7188 26.2886 21.8925 26.0444 21.6891L20.1838 16.8068Z" fill="#C70000"/>
<path d="M20.1838 16.8068C19.9994 16.6532 20.0048 16.3685 20.1947 16.222L26.0554 11.7006C26.3018 11.5105 26.6592 11.6862 26.6592 11.9974V21.4011C26.6592 21.7188 26.2886 21.8925 26.0444 21.6891L20.1838 16.8068Z" fill="white"/>
</svg>
