<svg width="64" height="64" viewBox="0 0 64 64" fill="none" xmlns="http://www.w3.org/2000/svg">
<path d="M14.1112 15.0557C15.4132 15.3839 16.2046 16.7042 15.88 18.0062L9.34085 44.1556H20.8145L21.3069 44.2066C21.8561 44.3189 22.3498 44.6174 22.7043 45.0517C23.0589 45.486 23.2525 46.0294 23.2525 46.59C23.2525 47.1506 23.0589 47.694 22.7043 48.1283C22.3498 48.5626 21.8561 48.8611 21.3069 48.9734L20.8145 49.0244H6.22626C5.85644 49.024 5.49158 48.9392 5.15943 48.7766C4.82728 48.614 4.53657 48.3778 4.30943 48.0859C4.08228 47.7941 3.92466 47.4543 3.84856 47.0924C3.77247 46.7305 3.77989 46.356 3.87027 45.9974L11.1644 16.8209C11.3219 16.1966 11.7206 15.6602 12.273 15.3293C12.8254 14.9984 13.4864 14.9 14.1112 15.0557Z" fill="#282828"/>
<path d="M47.5583 17.4117H13.5203L20.8144 46.5882H54.8524L47.5583 17.4117Z" fill="#282828"/>
<path d="M47.5583 14.9756L47.9704 15.0121C48.9077 15.1725 49.6846 15.8728 49.9216 16.8174L57.2157 45.9938C57.3056 46.3528 57.3124 46.7275 57.2356 47.0895C57.1588 47.4515 57.0004 47.7912 56.7725 48.0828C56.5447 48.3743 56.2533 48.61 55.9205 48.7719C55.5878 48.9339 55.2225 49.0178 54.8524 49.0172H20.8144C20.3428 49.017 19.8815 48.8796 19.4865 48.6219C19.0915 48.3642 18.7799 47.9973 18.5897 47.5657L18.4585 47.1755L11.1643 17.999C11.0746 17.6406 11.0677 17.2665 11.1441 16.9051C11.2205 16.5436 11.3782 16.2043 11.6053 15.9129C11.8324 15.6215 12.1228 15.3857 12.4546 15.2233C12.7865 15.0609 13.1509 14.9762 13.5203 14.9756H47.5583ZM22.7146 44.1521H51.7379L45.6582 19.8408H16.6349L22.7146 44.1521Z" fill="#282828"/>
<path d="M48.7764 22.2697L49.2651 22.3207C49.8125 22.4347 50.3039 22.7337 50.6566 23.1674C51.0094 23.6012 51.2019 24.1432 51.2019 24.7022C51.2019 25.2613 51.0094 25.8033 50.6566 26.2371C50.3039 26.6708 49.8125 26.9698 49.2651 27.0838L48.7764 27.1348H15.9529C15.3077 27.1348 14.689 26.8785 14.2328 26.4223C13.7766 25.9661 13.5203 25.3474 13.5203 24.7022C13.5203 24.0571 13.7766 23.4383 14.2328 22.9821C14.689 22.5259 15.3077 22.2697 15.9529 22.2697H48.7764Z" fill="white"/>
<path d="M12.9259 15.0558C13.4687 14.9196 14.0419 14.9747 14.5488 15.2119C15.0557 15.4491 15.4653 15.8538 15.7086 16.3578L15.8763 16.821L19.5234 31.4092L19.5963 31.8979C19.6197 32.457 19.4496 33.007 19.1148 33.4552C18.7799 33.9035 18.3008 34.2227 17.7581 34.3589C17.2153 34.4951 16.6423 34.44 16.1354 34.203C15.6286 33.966 15.2189 33.5615 14.9755 33.0577L14.8078 32.5945L11.1607 18.0063L11.0878 17.5176C11.0644 16.9579 11.2349 16.4073 11.5704 15.9588C11.906 15.5103 12.386 15.1914 12.9295 15.0558H12.9259ZM46.9675 15.0558C47.5103 14.9196 48.0835 14.9747 48.5904 15.2119C49.0973 15.4491 49.5069 15.8538 49.7502 16.3578L49.918 16.821L53.565 31.4092L53.638 31.8979C53.6613 32.457 53.4913 33.007 53.1564 33.4552C52.8216 33.9035 52.3424 34.2227 51.7997 34.3589C51.257 34.4951 50.6839 34.44 50.1771 34.203C49.6702 33.966 49.2606 33.5615 49.0172 33.0577L48.8494 32.5945L45.2023 18.0063L45.1294 17.5176C45.1058 16.9584 45.2758 16.4082 45.6106 15.9598C45.9455 15.5113 46.4247 15.1921 46.9675 15.0558Z" fill="#282828"/>
</svg>
