<svg width="147" height="32" viewBox="0 0 147 32" fill="none" xmlns="http://www.w3.org/2000/svg">
<path d="M22.2941 14.5649C22.4218 14.6077 22.8866 14.8544 23.0437 14.9328C23.5804 15.2021 24.1189 15.4682 24.6588 15.7304L31.9746 19.3167L31.9778 22.1933C31.9781 22.8357 31.9969 23.6259 31.9412 24.257C31.7841 26.2133 30.9412 28.052 29.5606 29.4485C28.4428 30.5774 26.9788 31.4005 25.4222 31.7393C24.1469 32.0167 22.7528 31.9423 21.4403 31.942L17.1299 31.9399L0.00919938 31.9437L0.00873821 22.6929C0.007674 21.6242 -0.018436 20.4269 0.0250547 19.3688C0.680502 19.6402 1.61634 20.1345 2.28736 20.4623L7.00795 22.7847L21.6595 29.9768C21.6826 29.2305 21.6638 28.3915 21.6638 27.6395L21.6666 23.2694C18.8688 21.8308 15.9355 20.5059 13.1318 19.0683C14.127 18.5241 15.5116 17.8827 16.5595 17.3703L22.2941 14.5649Z" fill="#10965F"/>
<path d="M8.3218 0.0148069C10.9311 -0.0175801 13.6131 0.0132481 16.2272 0.0133189L31.9786 0.0136368L31.9751 12.5989C31.3709 12.3364 30.6359 11.9522 30.0322 11.657L25.743 9.54509L10.3649 2.0009C10.288 2.11195 10.3221 8.08179 10.3227 8.68527C13.0934 10.1332 16.0814 11.4409 18.8505 12.8869C18.1694 13.2873 16.7444 13.9341 15.9892 14.304C13.8912 15.3317 11.7748 16.395 9.66582 17.3939C9.37682 17.2118 8.85943 16.9751 8.54049 16.8192L6.47049 15.8125L0.00707422 12.6354L0.0082802 9.72506C0.00796094 9.09362 -0.0105547 8.30201 0.0423011 7.68308C0.201578 5.8018 0.991151 4.02913 2.28346 2.65141C3.90645 0.934967 5.98216 0.0786596 8.3218 0.0148069Z" fill="#10965F"/>
<path d="M87.1662 4.54492C88.1506 4.54497 90.1641 4.4829 91.0704 4.5771C91.369 4.86208 93.1236 7.38951 93.4946 7.91612L99.3794 16.1124L101.336 18.8446C101.583 19.1934 101.9 19.8248 102.234 20.0356C102.348 19.7754 102.334 6.17563 102.279 4.56284C103.329 4.49418 105.314 4.54213 106.423 4.53623C106.483 4.83191 106.446 5.81982 106.445 6.17791L106.433 9.65233L106.421 23.1554C106.423 23.6845 106.493 27.241 106.347 27.4693C105.125 27.3873 103.888 27.4822 102.765 27.3972C102.141 26.9993 100.91 25.0198 100.401 24.3139L94.7932 16.4966C93.8395 15.1515 92.3091 12.8469 91.2688 11.6707C91.3779 12.33 91.3397 13.6865 91.3382 14.41L91.3304 19.0218L91.3381 24.2811C91.339 24.9788 91.3861 26.8124 91.2493 27.3683C91.0483 27.4862 87.6453 27.4169 87.1458 27.4104C87.0867 26.0506 87.115 24.5483 87.1165 23.1786L87.1217 16.4776L87.1298 9.55012C87.1287 7.89925 87.1003 6.18643 87.1662 4.54492Z" fill="white"/>
<path d="M44.4272 4.55219C45.6609 4.48766 47.2591 4.55152 48.5442 4.53043C48.6427 7.52895 48.5582 11.033 48.5607 14.0673L54.8851 14.068C56.3529 14.0665 57.9511 14.092 59.4112 14.0398C59.4268 11.9607 59.4296 9.88157 59.4197 7.80242C59.4193 6.76551 59.3955 5.57879 59.459 4.55353C59.9945 4.52672 63.2004 4.49378 63.5622 4.61243C63.7174 5.40315 63.6458 27.2001 63.6129 27.2793C63.5663 27.3919 63.4933 27.4007 63.3884 27.4445C62.0627 27.3966 60.7445 27.4472 59.4369 27.3969C59.3562 24.2759 59.4656 21.0726 59.4076 17.934C55.8471 17.8614 52.1384 17.9212 48.553 17.9082L48.5601 24.3296C48.5607 25.3008 48.5854 26.2889 48.5275 27.2557C48.5408 27.3819 48.2663 27.4287 48.1601 27.4227C47.032 27.3594 45.9013 27.4596 44.7742 27.4103C44.6165 27.4035 44.4983 27.379 44.4129 27.2542C44.3282 26.6149 44.3796 25.0868 44.3808 24.3545L44.3832 18.7128L44.3819 9.00005C44.3795 8.35536 44.3398 4.93655 44.4272 4.55219Z" fill="white"/>
<path d="M117.385 4.27608C119.292 3.98979 121.901 4.60591 123.579 5.46683C124.083 5.72515 126.037 6.86917 126.037 7.27864C126.036 7.85653 124.501 9.771 124.149 10.3944C122.087 9.0448 120.733 7.9534 118.053 7.91637C116.923 7.9412 115.856 8.21556 115.054 9.04931C114.172 9.79516 114.023 11.8648 115.105 12.5367C118.2 14.46 122.466 13.9423 125.187 16.7354C127.424 19.0333 127.219 23.2201 124.933 25.4491C122.855 27.4751 120.727 27.7608 117.959 27.7772C115.353 27.6389 113.424 27.0982 111.205 25.6136C110.91 25.4156 109.602 24.4641 109.591 24.1315C109.578 23.7195 110.932 22.2234 111.206 21.8148C111.283 21.7001 111.726 21.2366 111.828 21.292C112.374 21.5989 112.729 22.0569 113.255 22.4099C115.602 23.984 119.762 25.1104 121.977 22.7582C122.427 22.2807 122.695 21.6238 122.634 20.9577C122.571 20.2367 122.199 19.578 121.615 19.1511C121.122 18.7885 120.421 18.541 119.841 18.3391C117.382 17.4834 114.213 17.1642 112.16 15.4805C110.979 14.5111 110.409 13.1871 110.301 11.6871C110.161 9.76103 110.478 8.27296 111.745 6.75983C112.687 5.6358 114.396 4.78306 115.809 4.46079C116.218 4.3673 116.947 4.31472 117.385 4.27608Z" fill="white"/>
<path d="M127.73 4.53161C128.61 4.53979 129.489 4.53995 130.369 4.53211C130.762 4.5303 131.634 4.49587 131.982 4.58048C132.429 4.97771 136.862 13.575 137.348 14.6418C137.779 14.0271 137.995 13.4669 138.335 12.8163L139.856 9.96019L141.734 6.45125C142.075 5.8202 142.46 5.19505 142.763 4.5468C143.183 4.50787 146.723 4.50108 146.982 4.58477C147.142 5.02069 146.147 6.5602 145.907 7.00119L143.733 11.013C143.367 11.6848 142.957 12.3282 142.638 13.0228C141.716 14.8334 140.477 16.811 139.577 18.658C139.395 19.0297 139.45 20.6112 139.453 21.1233L139.457 24.6795C139.462 25.1877 139.583 27.1675 139.307 27.3963C138.968 27.4621 135.569 27.434 135.352 27.3484C135.039 27.0284 135.427 19.7452 135.199 18.9065C134.973 18.0738 134.242 16.9737 133.836 16.2139L130.197 9.39918C129.532 8.17321 128.101 5.76826 127.73 4.53161Z" fill="white"/>
<path d="M67.9492 4.55131C68.8561 4.50654 70.0684 4.57102 71.0247 4.56974L77.0644 4.54123C78.3013 4.54769 79.5382 4.54791 80.7752 4.54184C81.5519 4.539 82.4668 4.50727 83.2269 4.57324C83.3869 4.9355 83.4093 8.22621 83.1877 8.53875C78.0382 8.49499 72.8886 8.4911 67.7391 8.52701C67.6765 7.47847 67.6865 5.83261 67.7435 4.74989C67.7495 4.63554 67.8617 4.59668 67.9492 4.55131Z" fill="white"/>
<path d="M79.4289 23.4878C80.0647 23.4955 82.8563 23.412 83.2393 23.6026C83.4005 24.0642 83.3574 26.8702 83.2115 27.381C83.093 27.4517 72.9421 27.3691 71.8548 27.3835L67.7284 27.4126C67.6673 26.286 67.6859 24.6502 67.7418 23.5327C71.5741 23.3872 75.6158 23.6135 79.4289 23.4878Z" fill="white"/>
<path d="M68.3214 14.1349C69.4163 14.084 81.4333 14.0661 81.6826 14.1569C81.723 14.1716 81.751 14.199 81.7694 14.2363C81.9343 14.5694 81.9046 17.4613 81.7707 17.8498C81.6358 17.9941 81.6725 17.9525 81.4366 17.9731C78.7309 17.9424 76.0251 17.9324 73.3193 17.9432C71.5439 17.9431 69.5012 17.9035 67.7358 17.9797C67.7113 17.4628 67.6488 14.5595 67.767 14.2284C67.9121 14.1194 68.1327 14.1394 68.3214 14.1349Z" fill="white"/>
</svg>
