<svg width="34" height="34" viewBox="0 0 34 34" fill="none" xmlns="http://www.w3.org/2000/svg">
<rect width="33.5467" height="33.5467" rx="8" fill="#645EA4"/>
<path fill-rule="evenodd" clip-rule="evenodd" d="M10.5898 13.875C10.6089 12.4815 11.1616 11.2789 12.1717 10.3626C12.5719 9.98086 13.1246 9.31275 13.7344 9.38911C14.3634 9.46546 14.8398 10.1718 15.1447 10.6681C15.6784 11.5271 16.5741 12.7869 15.7546 13.7414C15.3544 14.1995 14.7445 14.4477 14.4015 14.9249C14.0394 15.4212 14.249 16.0893 14.4968 16.5856C15.0685 17.731 16.0405 18.8191 17.0125 19.6208C17.4508 19.9835 18.0416 20.4225 18.6515 20.308C19.2804 20.2125 19.7568 19.5063 20.2142 19.1436C21.3768 18.1891 22.6727 19.4872 23.5303 20.2507C23.9306 20.6134 24.407 21.0906 24.3689 21.6824C24.3308 22.2742 23.5685 22.7705 23.1492 23.1141C22.0057 24.0494 20.5954 24.3549 19.147 24.0494C17.6032 23.7249 16.2882 22.7896 15.1257 21.7588C13.9441 20.7089 12.934 19.4299 12.0573 18.1128C11.6571 17.5019 11.295 16.8529 11.0472 16.1466C10.7804 15.4021 10.6851 14.6577 10.5898 13.875C10.647 14.2759 10.6089 13.0924 10.5898 13.875Z" fill="white"/>
</svg>
